<svg xmlns="http://www.w3.org/2000/svg" width="512" height="512"><path d="M256 81q-59 0-108.5 29T69 188.5t-29 108 29 108 78.5 78.5T256 512t108.5-29 78.5-78.5 29-108-29-108-78.5-78.5T256 81zm0 375q-44 0-81.5-21.5t-59-59T94 294t21.5-81.5 59-59T256 132t81.5 21.5 59 59T418 294t-21.5 81.5-59 59T256 456zM102 23Q62 46 48 71q-14 23-3 42l21 38q29-39 72.5-63T232 60l-23-41Q199 0 172 0q-30 0-70 23zm308 0Q370 0 340 0q-27 0-37 19l-23 40q50 3 93 27 42 23 73 63l22-36q10-19-4-42-15-25-54-48zm-49 320-86-57v-98q0-5-2-7t-6-2h-24q-4 0-6 2t-2 7v117q0 4 2 7l2 2 100 66q2 0 3 1l2 1h2q2 0 6-4l13-20q3-8-4-15z"/></svg>