<svg xmlns="http://www.w3.org/2000/svg" width="512" height="512"><path d="M242 275h56v140h-56V275zm98-56h57v196h-57V219zm99-99h56v295h-56V120zM178 342q0-1-2-2-19-16-27-24l-21-19q-16-13-18-24.5t6-26.5q5-10 14-32l11-23v-3q-11 0-17 3-8 3-11 11t-13 21q-4 6-11 8t-13-1.5-7-9 4-13.5l21-39q7-11 21-13 30-5 52.5-7t41.5 10q7 5 20.5 16t21.5 16l4-6q13-18 19-27 12-16 25-7 6 4 7 11t-3 14q-19 23-36 49-6 7-11.5 8t-13.5-2.5-23-12.5l-13-7-41 67 39 39q11 11 12.5 20.5T210 359q-19 32-30 53-6 9-13 11.5t-14.5-1.5-9-12 4.5-17zm32-264q13 0 22.5 9.5T242 110t-9.5 22-22.5 9-22.5-9-9.5-22 9.5-22.5T210 78zM99 288q5 12 13 20 6 7 17 14-5 6-12 19-11 17-18.5 26T72 392q-15 14-23 22-11 11-22.5 4.5T17 398q0-4 6-10 32-25 43-38 18-20 28-50 0 2 5-12z"/></svg>